<svg viewBox="0 0 34 34" xmlns="http://www.w3.org/2000/svg" xml:space="preserve" style="fill-rule:evenodd;clip-rule:evenodd;stroke-linejoin:round;stroke-miterlimit:1.41421"><path d="M8.307 23c-.536 0-1.031-.38-1.031-1.124v-9.752c0-.744.495-1.124 1.031-1.124.293 0 .569.097.888.283l8.26 4.617c.436.243.729.494.805.874v-4.65c0-.744.502-1.124 1.03-1.124.302 0 .578.097.896.283l8.261 4.617c.511.283.829.574.829 1.1 0 .518-.318.817-.829 1.1l-8.261 4.617c-.318.186-.594.283-.896.283-.528 0-1.03-.38-1.03-1.124v-4.658c-.076.388-.369.639-.805.882l-8.26 4.617c-.319.186-.595.283-.888.283Z" style="fill-rule:nonzero"/></svg>