<svg width="30" height="22" xmlns="http://www.w3.org/2000/svg" fill-rule="evenodd" clip-rule="evenodd" stroke-linejoin="round" stroke-miterlimit="1.414"><path d="M17 7V5.968c0-.259.176-.468.392-.468.066 0 .131.02.189.058l2.716 1.782c.19.125.259.409.154.635a.433.433 0 0 1-.154.185l-2.716 1.782c-.19.125-.428.042-.532-.184A.543.543 0 0 1 17 9.532V8.5h-5.092c-.61 0-1.055.1-1.41.29a1.68 1.68 0 0 0-.708.708c-.159.297-.255.658-.282 1.125-.004.06-.011.154-.024.281A.75.75 0 0 1 8 10.75v-.25c0-.866.162-1.139.467-1.709a3.189 3.189 0 0 1 1.324-1.324c.57-.305 1.251-.467 2.117-.467H17zm-4 8v1.006a.596.596 0 0 1-.049.238c-.104.239-.342.326-.532.195l-2.716-1.881a.451.451 0 0 1-.154-.195c-.105-.239-.036-.539.154-.671l2.716-1.881a.332.332 0 0 1 .189-.061c.216 0 .392.221.392.494V13.5h5.092c.61 0 1.055-.1 1.41-.29a1.68 1.68 0 0 0 .708-.708c.159-.297.255-.658.282-1.125.004-.06.011-.154.024-.281A.75.75 0 0 1 22 11.25v.25c0 .866-.162 1.139-.467 1.709a3.189 3.189 0 0 1-1.324 1.324c-.57.305-1.251.467-2.117.467H13z" fill-rule="nonzero"/></svg>