<svg viewBox="0 0 34 34" xmlns="http://www.w3.org/2000/svg" xml:space="preserve" style="fill-rule:evenodd;clip-rule:evenodd;stroke-linejoin:round;stroke-miterlimit:1.41421"><path d="M26.97 23c.536 0 1.03-.38 1.03-1.124v-9.752C28 11.38 27.506 11 26.97 11c-.294 0-.57.097-.889.283l-8.26 4.617c-.436.243-.729.494-.804.874v-4.65c0-.744-.503-1.124-1.031-1.124-.301 0-.578.097-.896.283L6.829 15.9C6.318 16.183 6 16.474 6 17c0 .518.318.817.829 1.1l8.261 4.617c.318.186.595.283.896.283.528 0 1.031-.38 1.031-1.124v-4.658c.075.388.368.639.804.882l8.26 4.617c.319.186.595.283.889.283Z" style="fill-rule:nonzero"/></svg>