<svg width="30" height="22" xmlns="http://www.w3.org/2000/svg" fill-rule="evenodd" clip-rule="evenodd" stroke-linejoin="round" stroke-miterlimit="1.414"><path d="M19.542 7V5.968c0-.259.175-.468.392-.468.066 0 .131.02.189.058l2.715 1.782c.19.125.259.409.155.635a.435.435 0 0 1-.155.185l-2.715 1.782c-.19.125-.428.042-.533-.184a.543.543 0 0 1-.048-.226V8.5h-.377a2.758 2.758 0 0 0-2.099.974L15.774 11l1.292 1.526a2.758 2.758 0 0 0 2.099.974h.377v-1.032c0-.259.175-.468.392-.468.066 0 .131.02.189.058l2.715 1.782c.19.125.259.409.155.635a.435.435 0 0 1-.155.185l-2.715 1.782c-.19.125-.428.042-.533-.184a.543.543 0 0 1-.048-.226V15h-.377a4.24 4.24 0 0 1-3.245-1.505l-1.128-1.334-1.129 1.334A4.254 4.254 0 0 1 10.418 15H9.292a.75.75 0 1 1 0-1.5h1.126a2.753 2.753 0 0 0 2.1-.974L13.809 11l-1.291-1.526a2.753 2.753 0 0 0-2.1-.974H9.292a.75.75 0 1 1 0-1.5h1.126a4.255 4.255 0 0 1 3.245 1.505l1.129 1.334 1.128-1.334A4.26 4.26 0 0 1 19.165 7h.377z" fill-rule="nonzero"/></svg>